<?xml version="1.0" encoding="utf-8"?>
<!-- Generator: Adobe Illustrator 21.0.0, SVG Export Plug-In . SVG Version: 6.00 Build 0)  -->
<svg version="1.1" xmlns="http://www.w3.org/2000/svg" xmlns:xlink="http://www.w3.org/1999/xlink" x="0px" y="0px"
	 viewBox="0 0 500 500" style="enable-background:new 0 0 500 500;" xml:space="preserve">
<style type="text/css">
	.st0{fill:#FFFFFF;stroke:#000000;stroke-width:5;stroke-miterlimit:10;}
	.st1{fill:none;stroke:#000000;stroke-width:5;stroke-miterlimit:10;}
	.st2{fill:none;stroke:#000000;stroke-width:2;stroke-miterlimit:10;}
</style>
<g id="Rectangle_1_">
	<rect x="12.5" y="150" class="st0" width="475" height="200"/>
</g>
<g id="Lines_1_">
	<line class="st1" x1="45.8" y1="349.9" x2="245.5" y2="150.1"/>
	<line class="st1" x1="243.8" y1="350" x2="443.4" y2="150.4"/>
</g>
<g id="Name_1_">
	<g>
		<path d="M80.1,176l28.1,50.9H83.8l-3.4-6.4H68.7l-10.4,0l-1.8,0l-2.3,4.3c-0.7,1.3-1.2,2.1-1.4,2.4c-0.3,0.3-0.6,0.5-1,0.5
			c-0.8,0-1.2-0.4-1.2-1.1c0-0.3,0.2-0.9,0.7-1.7c0.5-0.8,2.1-3.6,4.8-8.2l21.3-35.8L80.1,176z M69.2,199.1L63,209.5l-4.9,8.5
			l10.5,0.1l10.5-0.1L69.2,199.1z"/>
		<path d="M110.8,220.4c0.5,0,1.1,0.4,1.8,1.1c1.2,1.1,2.8,2.1,5,2.8c2.2,0.8,4.2,1.2,6,1.2c0.9,0,1.5-0.1,2-0.4
			c0.4-0.3,0.7-0.7,0.7-1.3c0-0.6-0.3-1.2-0.9-2s-1.9-2.3-4-4.5c-5-5.4-8.3-9.2-9.8-11.4c-1.5-2.2-2.2-4.3-2.2-6.3
			c0-1.8,0.5-3.4,1.5-5c1-1.6,2.4-3,4.3-4.1c3-1.9,6.5-2.8,10.4-2.8c2.9,0,5.9,0.6,9.1,1.8c2.5,1,3.8,2,3.8,3.1
			c0,0.4-0.1,0.7-0.4,0.9c-0.3,0.3-0.6,0.4-1,0.4c-0.4,0-1.3-0.4-2.5-1.3c-2.5-1.8-5.2-2.7-8.1-2.7c-1,0-1.8,0.2-2.3,0.5
			c-0.5,0.3-0.8,0.8-0.8,1.5c0,0.8,0.5,1.8,1.5,3c1,1.2,2.9,3.3,5.9,6.2c2.9,2.8,4.8,4.7,5.5,5.6c0.8,0.9,1.5,1.9,2.3,3
			c1.2,2,1.9,4.1,1.9,6.4c0,3.6-1.7,6.5-5.2,8.8c-2.9,1.9-6.4,2.8-10.5,2.8c-4.6,0-8.8-1-12.3-3.1c-1.1-0.6-1.8-1.1-2.2-1.5
			c-0.4-0.4-0.6-0.8-0.6-1.3C109.4,220.9,109.8,220.4,110.8,220.4z"/>
		<path d="M164,193.5c2.3-1.5,4.1-2.6,5.5-3.3c3.5-1.7,7-2.6,10.4-2.6c2.5,0,4.7,0.4,6.7,1.3c2,0.9,3.5,2.1,4.4,3.7
			c1.1,1.9,1.7,5.3,1.7,10.2l-0.1,5.2l-0.1,6.9l0.3,12h-18.1l0.1-21.7l-0.2-11.1c-0.2-1.2-1.1-1.8-2.6-1.8c-1.1,0-2.3,0.3-3.7,1
			s-2.9,1.7-4.5,3l-0.1,8.8l0.1,15.3l0.1,6.5H146l0.1-14.8v-16.9l-0.1-14.6l0-1.6H164v1l0,6l0,3.7V193.5z"/>
		<path d="M218.2,187.6c3.8,0,7.3,1,10.7,3.1c3.1,1.9,5.5,4.5,7.1,7.9c1.5,2.9,2.2,6,2.2,9.3c0,2.3-0.4,4.5-1.3,6.8
			c-0.9,2.3-2,4.3-3.5,6c-2.1,2.4-4.6,4.2-7.6,5.4c-2.4,1-5,1.5-7.6,1.5c-4.4,0-8.4-1.3-12-3.9c-2.8-2-4.9-4.6-6.3-7.8
			c-1.2-2.7-1.8-5.5-1.8-8.5c0-5.8,2.1-10.6,6.3-14.5C208.5,189.5,213.1,187.6,218.2,187.6z M217.2,189.8l-0.1,35.5
			c0.7,0,1.2,0.1,1.5,0.1c3.3,0,6.4-0.9,9.4-2.7c2.9-1.8,5-4.2,6.4-7.1c1.1-2.3,1.7-4.9,1.7-7.7c0-5.7-2.1-10.2-6.3-13.8
			c-3.4-2.8-7-4.3-11-4.3C218.5,189.7,217.9,189.8,217.2,189.8z"/>
		<path d="M274.4,195.8l4,6.6l3.8,6.5c3.8,6.2,6.3,10.4,7.7,12.4c1.4,2,2.9,3.9,4.6,5.6h-20.9l-6.5-11.4c-2.4-4.2-4.2-7.3-5.5-9.2
			v1.6l0,6.3l0.1,11l0,1.7h-18l0.2-16.9l0-9.8l-0.2-19.6l0-1.7h18l-0.1,23.1v1.9c6.5-5.9,11-9.7,13.5-11.6c3.2-2.4,6-3.7,8.5-3.7
			c1.8,0,2.7,0.7,2.7,2c0,0.5-0.2,0.9-0.5,1.2c-0.3,0.3-0.7,0.5-1.2,0.5c-0.3,0-0.6-0.1-1-0.2c-0.7-0.2-1.2-0.3-1.5-0.3
			c-1,0-2,0.3-3.1,0.9C277.9,193.3,276.4,194.3,274.4,195.8z"/>
		<path d="M314.1,178.9h18.5c4.8,0,8.5,0.2,10.9,0.7c6,1.1,10.9,4.4,14.6,9.6c2.9,4.1,4.4,8.7,4.4,13.7c0,5.1-1.5,9.7-4.5,13.9
			c-3.6,5-8.3,8.2-14.1,9.4c-1.5,0.3-2.8,0.5-4,0.6s-3.8,0.1-7.7,0.1h-17.9l0.1-23.2L314.1,178.9z M335.6,181.2l-0.2,28.3l0.2,15.2
			c3.1,0,5.4-0.1,6.8-0.4c1.4-0.2,2.9-0.7,4.7-1.5c4.2-1.8,7.5-4.7,9.9-8.7c2.1-3.4,3.1-7.2,3.1-11.2c0-4.4-1.2-8.4-3.7-12
			c-4.4-6.5-10.9-9.7-19.4-9.7L335.6,181.2z"/>
		<path d="M382.2,208.8v10.9c0,2.1,0.1,3.4,0.4,4c0.5,1.1,1.7,1.6,3.5,1.6c2.7,0,5.4-0.7,8.1-2.2c2.7-1.5,5-3.5,6.9-6.2
			c0.6-0.9,1.1-1.4,1.4-1.7c0.3-0.2,0.6-0.4,0.9-0.4c0.4,0,0.7,0.1,1,0.4c0.3,0.3,0.4,0.7,0.4,1.1c0,1-0.8,2.3-2.4,4
			c-2.1,2.1-4.6,3.9-7.7,5.2s-6,2-8.9,2c-5,0-9.4-1.7-13.2-5c-2.2-2-3.9-4.4-5.1-7.3c-1.1-2.5-1.6-5.1-1.6-7.6
			c0-2.4,0.5-4.9,1.4-7.3c0.9-2.4,2.2-4.6,3.9-6.3c1.9-2.1,4.1-3.7,6.8-4.9c2.6-1.1,5.2-1.7,8-1.7c4.3,0,8.3,1.3,11.8,3.8
			c5.5,4,8.2,9.8,8.2,17.3h-8.2l-10.5,0L382.2,208.8z M391.2,206.5v-10.2c0-2.2-0.1-3.5-0.1-3.9c0-0.4-0.2-0.8-0.5-1.2
			c-0.7-0.9-2-1.4-4-1.4c-2.1,0-3.4,0.5-3.9,1.6c-0.3,0.6-0.5,2.3-0.5,4.9v10.2l4.3,0.1L391.2,206.5z"/>
		<path d="M435.3,206c4.6-7,8-12.3,10-16c0.7-1.2,1.2-2,1.4-2.2s0.5-0.3,0.8-0.3c0.5,0,0.9,0.2,1.3,0.5s0.6,0.8,0.6,1.2
			c0,0.4-0.2,0.8-0.6,1.3c-3.4,4.6-7.6,10.8-12.8,18.7l-6.2,9.5c-2.1,3.2-3.9,5.6-5.3,7c-1,1-2.3,1.8-3.7,2.5
			c-1.4,0.6-2.8,0.9-4.1,0.9c-1.3,0-2.4-0.3-3.2-0.8c-0.8-0.5-1.2-1.1-1.2-1.9c0-0.5,0.2-0.9,0.6-1.3s0.8-0.5,1.4-0.5
			c0.4,0,1.2,0.3,2.3,0.8c0.8,0.4,1.4,0.5,1.9,0.5c1.1,0,2.1-0.3,3-1c0.9-0.6,2-1.7,3.1-3.2l-4.1-6.5c-8.9-13.9-14.9-22.8-17.9-26.8
			h22.3c1.4,3.1,3,6.1,4.9,9.2S433.4,203.6,435.3,206z"/>
	</g>
</g>
<g id="Underline_1_">
	<line class="st2" x1="25" y1="250" x2="475" y2="250"/>
</g>
<g id="Tagline_1_">
	<g>
		<path d="M97.4,283c0,2.3-0.8,4.3-2.2,5.8c-0.8,0.9-1.8,1.5-2.9,2s-2.3,0.7-3.4,0.7c-1,0-2-0.2-3-0.6s-1.9-0.9-2.7-1.6
			c-1-0.9-1.7-2-2.2-3.3c-0.4-1-0.6-2-0.6-3c0-1.9,0.6-3.5,1.7-5.1c0.8-1.1,1.8-1.9,3-2.5s2.4-0.9,3.8-0.9c2.3,0,4.3,0.8,6,2.4
			c0.7,0.7,1.1,1.2,1.1,1.5c0,0.1,0,0.2-0.1,0.3s-0.2,0.1-0.3,0.1c-0.2,0-0.4-0.1-0.6-0.4c-1.6-2.1-3.6-3.1-6-3.1
			c-0.3,0-0.6,0-0.9,0.1l-0.1,8.3l0.1,7.1c0.3,0.1,0.6,0.1,0.9,0.1c0.9,0,1.7-0.1,2.6-0.4c2.1-0.7,3.6-2.1,4.5-4.1
			c0.4-0.8,0.6-1.7,0.7-2.6h-6.1c-0.5,0-0.9,0-1-0.1s-0.2-0.1-0.2-0.3c0-0.3,0.2-0.4,0.6-0.4l0.7,0H97.4z"/>
		<path d="M104,285.1v3.6c0,0.7,0,1.1,0.1,1.3c0.2,0.4,0.6,0.5,1.2,0.5c0.9,0,1.8-0.2,2.7-0.7s1.7-1.2,2.3-2.1
			c0.2-0.3,0.4-0.5,0.5-0.6s0.2-0.1,0.3-0.1c0.1,0,0.2,0,0.3,0.1s0.1,0.2,0.1,0.4c0,0.3-0.3,0.8-0.8,1.3c-0.7,0.7-1.5,1.3-2.6,1.7
			s-2,0.7-3,0.7c-1.7,0-3.1-0.6-4.4-1.7c-0.7-0.7-1.3-1.5-1.7-2.4c-0.4-0.8-0.5-1.7-0.5-2.5c0-0.8,0.2-1.6,0.5-2.4s0.7-1.5,1.3-2.1
			c0.6-0.7,1.4-1.2,2.3-1.6c0.9-0.4,1.7-0.6,2.7-0.6c1.4,0,2.8,0.4,3.9,1.3c1.8,1.3,2.7,3.3,2.7,5.8h-2.7l-3.5,0L104,285.1z
			 M107,284.3v-3.4c0-0.7,0-1.2,0-1.3c0-0.1-0.1-0.3-0.2-0.4c-0.2-0.3-0.7-0.5-1.3-0.5c-0.7,0-1.1,0.2-1.3,0.5
			c-0.1,0.2-0.2,0.8-0.2,1.6v3.4l1.4,0L107,284.3z"/>
		<path d="M119.8,274.2l-0.1,3.8l0,0.4c0.7,0,1.3,0,1.9-0.1c0.1,0,0.2,0,0.2,0c0.3,0,0.5,0.2,0.5,0.5c0,0.3-0.2,0.4-0.5,0.4
			c-0.1,0-0.2,0-0.4,0c-0.6,0-1.1-0.1-1.3-0.1h-0.3l0,2.3l0,4.6l0,2.4c0,0.6,0,1,0.1,1.2c0.1,0.2,0.2,0.3,0.4,0.3
			c0.3,0,0.6-0.2,0.9-0.5c0.3-0.3,0.6-0.7,0.7-1.2c0.2-0.5,0.4-0.7,0.6-0.7c0.3,0,0.4,0.1,0.4,0.4s-0.1,0.7-0.4,1.1s-0.6,0.8-1,1.2
			c-0.9,0.8-2.1,1.2-3.6,1.2c-1.4,0-2.5-0.4-3.2-1.3c-0.4-0.4-0.7-0.9-0.8-1.4c-0.1-0.5-0.2-1.2-0.2-2.2v-0.9l0-2.5V279
			c-0.1,0-0.2,0-0.2,0c-0.1,0-0.2,0-0.5,0c-0.2,0-0.4,0-0.5,0c-0.4,0-0.6-0.1-0.6-0.4c0-0.3,0.2-0.4,0.6-0.4c0.2,0,0.3,0,0.4,0
			l0.9,0.1v-1.3C116.1,276.1,118.1,275.2,119.8,274.2z"/>
		<path d="M130.2,274.2l-0.1,3.8l0,0.4c0.7,0,1.3,0,1.9-0.1c0.1,0,0.2,0,0.2,0c0.3,0,0.5,0.2,0.5,0.5c0,0.3-0.2,0.4-0.5,0.4
			c-0.1,0-0.2,0-0.4,0c-0.6,0-1.1-0.1-1.3-0.1h-0.3l0,2.3l0,4.6l0,2.4c0,0.6,0,1,0.1,1.2c0.1,0.2,0.2,0.3,0.4,0.3
			c0.3,0,0.6-0.2,0.9-0.5c0.3-0.3,0.6-0.7,0.7-1.2c0.2-0.5,0.4-0.7,0.6-0.7c0.3,0,0.4,0.1,0.4,0.4s-0.1,0.7-0.4,1.1s-0.6,0.8-1,1.2
			c-0.9,0.8-2.1,1.2-3.6,1.2c-1.4,0-2.5-0.4-3.2-1.3c-0.4-0.4-0.7-0.9-0.8-1.4c-0.1-0.5-0.2-1.2-0.2-2.2v-0.9l0-2.5V279
			c-0.1,0-0.2,0-0.2,0c-0.1,0-0.2,0-0.5,0c-0.2,0-0.4,0-0.5,0c-0.4,0-0.6-0.1-0.6-0.4c0-0.3,0.2-0.4,0.6-0.4c0.2,0,0.3,0,0.4,0
			l0.9,0.1v-1.3C126.5,276.1,128.5,275.2,130.2,274.2z"/>
		<path d="M140.2,278.3v0.3l0,1.8l0,2.8l0,4.3l0,2.4l0,1.1h-6l0.1-4.3l0-3.8l0-2l0-2.2l0-0.4H140.2z M137.2,274.2
			c2.1,0,3.1,0.5,3.1,1.6c0,0.5-0.3,0.9-0.8,1.2s-1.3,0.4-2.3,0.4c-2,0-2.9-0.6-2.9-1.7C134.2,274.8,135.2,274.2,137.2,274.2z"/>
		<path d="M149,278.3v1.6c0.9-0.6,1.8-1.1,2.7-1.5s1.7-0.5,2.6-0.5c1.1,0,2,0.3,2.8,0.8c0.6,0.4,1,0.9,1.2,1.4s0.3,1.5,0.3,2.8
			l0,5.4l0,2.7h-6l0-3.3l0-2.4l0-3.6c0-0.8,0-1.3,0-1.5s0-0.3-0.1-0.4c-0.1-0.3-0.4-0.4-0.8-0.4c-0.4,0-0.8,0.1-1.2,0.3
			s-0.9,0.5-1.4,1l0,0.5l0,3.3l0,2.5l0,3.4l0,0.5h-6l0-4.6l0-3l0-2.6l0-2.5H149z"/>
		<path d="M170.2,278.8c0.7,0.3,1.2,0.8,1.7,1.3c0.6,0.7,0.9,1.6,0.9,2.5c0,0.7-0.2,1.3-0.5,1.9s-0.8,1.1-1.4,1.5
			c-1.1,0.8-2.5,1.2-4.1,1.2c-0.7,0-1.4-0.1-2.1-0.2s-1.2-0.3-1.7-0.6c-0.4,0.3-0.6,0.5-0.6,0.8c0,0.3,0.2,0.5,0.6,0.5
			c0.9,0.1,1.5,0.2,1.9,0.1l0.1,0h3.5l0.2,0c1.2-0.1,2,0.1,2.5,0.6c0.4,0.4,0.6,0.8,0.6,1.3c0,0.4-0.1,0.8-0.4,1.1
			c-0.5,0.6-1.1,0.8-1.9,0.8c-0.1,0-0.3,0-0.6,0c0.1-0.2,0.2-0.3,0.2-0.5c0-0.2-0.2-0.4-0.7-0.4c-0.4,0-1.2,0.1-2.4,0.2
			c-0.8,0.1-1.5,0.2-2.1,0.2c-0.9,0-1.6-0.2-2.2-0.6c-0.4-0.2-0.7-0.5-0.9-0.9s-0.3-0.8-0.3-1.2c0-0.5,0.1-0.9,0.4-1.3
			s0.7-0.8,1.3-1.3c-0.6-0.4-1-0.8-1.3-1.4s-0.5-1.2-0.5-1.8c0-1.6,0.8-2.8,2.4-3.8c1.2-0.7,2.6-1.1,4.3-1.1c0.4,0,0.8,0,1.2,0.1
			c0.6,0,1,0.1,1.2,0.1c0.6,0,1.1-0.3,1.3-0.8c0.2-0.3,0.3-0.5,0.5-0.5c0.1,0,0.3,0,0.4,0.1s0.2,0.2,0.2,0.4c0,0.3-0.2,0.6-0.5,0.8
			S170.7,278.6,170.2,278.8z M165.6,280.1v5c0,0.6,0,1,0.1,1.1c0.2,0.2,0.5,0.3,1,0.3c0.5,0,0.8-0.1,0.9-0.3s0.2-0.6,0.2-1.3v-4.8
			c0-0.5-0.1-0.9-0.2-1.1s-0.5-0.3-0.9-0.3s-0.7,0.1-0.9,0.3S165.6,279.6,165.6,280.1z"/>
		<path d="M180.3,288.9c0.2,0,0.4,0.1,0.6,0.4c0.4,0.4,0.9,0.7,1.7,1s1.4,0.4,2,0.4c0.3,0,0.5,0,0.7-0.1s0.2-0.2,0.2-0.4
			s-0.1-0.4-0.3-0.7s-0.6-0.8-1.3-1.5c-1.7-1.8-2.8-3.1-3.3-3.8s-0.7-1.4-0.7-2.1c0-0.6,0.2-1.1,0.5-1.7s0.8-1,1.4-1.4
			c1-0.6,2.2-0.9,3.5-0.9c1,0,2,0.2,3,0.6c0.8,0.3,1.3,0.7,1.3,1c0,0.1,0,0.2-0.1,0.3s-0.2,0.1-0.3,0.1c-0.1,0-0.4-0.1-0.8-0.4
			c-0.8-0.6-1.7-0.9-2.7-0.9c-0.3,0-0.6,0.1-0.8,0.2s-0.3,0.3-0.3,0.5c0,0.3,0.2,0.6,0.5,1s1,1.1,2,2.1c1,0.9,1.6,1.6,1.8,1.9
			s0.5,0.6,0.8,1c0.4,0.7,0.6,1.4,0.6,2.1c0,1.2-0.6,2.2-1.7,2.9c-1,0.6-2.1,0.9-3.5,0.9c-1.5,0-2.9-0.3-4.1-1
			c-0.4-0.2-0.6-0.4-0.7-0.5s-0.2-0.3-0.2-0.4C179.9,289.1,180,289,180.3,288.9z"/>
		<path d="M207.3,280.2c1-0.8,2-1.3,2.8-1.7s1.8-0.5,2.8-0.5c1.8,0,3,0.6,3.7,1.7c0.2,0.3,0.3,0.7,0.4,1.2s0.1,1.1,0.1,2l0,3.1v0.7
			l0.1,3.9l0,0.5h-6l0-3.7l0.1-3.7l0-1.5c0-0.6,0-0.9,0-1c0-0.6-0.1-1-0.2-1.3s-0.4-0.4-0.8-0.4c-0.4,0-0.8,0.1-1.3,0.3
			s-1,0.6-1.5,1c0,0.3,0.1,0.7,0.1,1.3l0,2.9l0,3.3c0,1,0,1.8,0.1,2.6h-6l0-2.6l0-5.5c0-1.8,0-2.8-0.1-3c-0.1-0.3-0.4-0.5-0.8-0.5
			c-0.4,0-0.8,0.1-1.2,0.3s-0.9,0.6-1.5,1l0,5l0.1,5.3h-6v-0.5l0-2.1l0-2.9l0-2.8l0-4.5h6v1.6c0.9-0.7,1.7-1.1,2.6-1.5
			s1.7-0.5,2.6-0.5c1.3,0,2.4,0.3,3.2,1C206.8,279.2,207.1,279.7,207.3,280.2z"/>
		<path d="M228.1,283.3v-1.4c0-1,0-1.6,0-1.8s-0.1-0.4-0.2-0.6c-0.3-0.4-0.9-0.7-2-0.7c-1.6,0-2.8,0.5-3.7,1.5
			c-0.4,0.4-0.6,0.6-0.9,0.6c-0.2,0-0.3-0.1-0.5-0.2s-0.2-0.3-0.2-0.4c0-0.5,0.6-1,1.7-1.5c1.1-0.5,2.5-0.8,4.3-0.8
			c2.9,0,4.9,0.4,6.1,1.3c0.5,0.4,0.9,0.8,1,1.3s0.2,1.3,0.2,2.5v4.7c0,0.9,0,1.5,0.1,1.9s0.3,0.9,0.6,1.4h-6.6v-1.2
			c-0.7,0.5-1.4,0.9-2.1,1.1s-1.4,0.4-2.1,0.4c-1.2,0-2.2-0.3-3.1-1c-1.2-0.9-1.8-2-1.8-3.5c0-1.3,0.5-2.3,1.4-3
			c1.1-0.9,2.5-1.4,4.1-1.4c0.7,0,1.3,0.1,1.8,0.2C226.9,282.8,227.5,283,228.1,283.3z M228.1,284.2c-1-0.5-1.7-0.7-2.3-0.7
			c-0.5,0-0.8,0.2-0.9,0.5c-0.1,0.2-0.1,0.8-0.1,1.7v2.8c0,0.6,0,1,0.1,1.1c0.1,0.4,0.3,0.5,0.8,0.5c0.4,0,0.8-0.1,1.2-0.3
			s0.8-0.5,1.2-0.8L228.1,284.2z"/>
		<path d="M242.7,281.9l0,4.5l0,4.7h-6l0-0.6l0-2.4l0-4.3l-0.1-4.8l0-0.7h6v2.4c0.9-1,1.5-1.6,1.9-1.8c0.8-0.6,1.6-0.9,2.3-0.9
			c0.4,0,0.8,0.1,1.1,0.3s0.4,0.4,0.4,0.7c0,0.2-0.1,0.4-0.3,0.6c-0.2,0.1-0.4,0.2-0.6,0.2c-0.2,0-0.3,0-0.5-0.1
			c-0.3-0.2-0.6-0.2-0.9-0.2c-0.6,0-1.1,0.2-1.6,0.6S243.3,281.1,242.7,281.9z"/>
		<path d="M256.5,274.2l-0.1,3.8l0,0.4c0.7,0,1.3,0,1.9-0.1c0.1,0,0.2,0,0.2,0c0.3,0,0.5,0.2,0.5,0.5c0,0.3-0.2,0.4-0.5,0.4
			c-0.1,0-0.2,0-0.4,0c-0.6,0-1.1-0.1-1.3-0.1h-0.3l0,2.3l0,4.6l0,2.4c0,0.6,0,1,0.1,1.2c0.1,0.2,0.2,0.3,0.4,0.3
			c0.3,0,0.6-0.2,0.9-0.5c0.3-0.3,0.6-0.7,0.7-1.2c0.2-0.5,0.4-0.7,0.6-0.7c0.3,0,0.4,0.1,0.4,0.4s-0.1,0.7-0.4,1.1s-0.6,0.8-1,1.2
			c-0.9,0.8-2.1,1.2-3.6,1.2c-1.4,0-2.5-0.4-3.2-1.3c-0.4-0.4-0.7-0.9-0.8-1.4c-0.1-0.5-0.2-1.2-0.2-2.2v-0.9l0-2.5V279
			c-0.1,0-0.2,0-0.2,0c-0.1,0-0.2,0-0.5,0c-0.2,0-0.4,0-0.5,0c-0.4,0-0.6-0.1-0.6-0.4c0-0.3,0.2-0.4,0.6-0.4c0.2,0,0.3,0,0.4,0
			l0.9,0.1v-1.3C252.8,276.1,254.8,275.2,256.5,274.2z"/>
		<path d="M265.3,285.1v3.6c0,0.7,0,1.1,0.1,1.3c0.2,0.4,0.6,0.5,1.2,0.5c0.9,0,1.8-0.2,2.7-0.7s1.7-1.2,2.3-2.1
			c0.2-0.3,0.4-0.5,0.5-0.6s0.2-0.1,0.3-0.1c0.1,0,0.2,0,0.3,0.1s0.1,0.2,0.1,0.4c0,0.3-0.3,0.8-0.8,1.3c-0.7,0.7-1.5,1.3-2.6,1.7
			s-2,0.7-3,0.7c-1.7,0-3.1-0.6-4.4-1.7c-0.7-0.7-1.3-1.5-1.7-2.4c-0.4-0.8-0.5-1.7-0.5-2.5c0-0.8,0.2-1.6,0.5-2.4s0.7-1.5,1.3-2.1
			c0.6-0.7,1.4-1.2,2.3-1.6c0.9-0.4,1.7-0.6,2.7-0.6c1.4,0,2.8,0.4,3.9,1.3c1.8,1.3,2.7,3.3,2.7,5.8h-2.7l-3.5,0L265.3,285.1z
			 M268.3,284.3v-3.4c0-0.7,0-1.2,0-1.3c0-0.1-0.1-0.3-0.2-0.4c-0.2-0.3-0.7-0.5-1.3-0.5c-0.7,0-1.1,0.2-1.3,0.5
			c-0.1,0.2-0.2,0.8-0.2,1.6v3.4l1.4,0L268.3,284.3z"/>
		<path d="M281,281.9l0,4.5l0,4.7h-6l0-0.6l0-2.4l0-4.3L275,279l0-0.7h6v2.4c0.9-1,1.5-1.6,1.9-1.8c0.8-0.6,1.6-0.9,2.3-0.9
			c0.4,0,0.8,0.1,1.1,0.3s0.4,0.4,0.4,0.7c0,0.2-0.1,0.4-0.3,0.6c-0.2,0.1-0.4,0.2-0.6,0.2c-0.2,0-0.3,0-0.5-0.1
			c-0.3-0.2-0.6-0.2-0.9-0.2c-0.6,0-1.1,0.2-1.6,0.6S281.6,281.1,281,281.9z"/>
		<path d="M300.8,280.3c0,0.4,0,0.8,0,1.3v0.7l0.1,8.1l4,0l2.8,0c0.5,0,0.7,0.1,0.7,0.4c0,0.2-0.1,0.4-0.4,0.4c-0.1,0-0.4,0-1,0
			h-13.3l0-0.6l0-3.9l0-4.2l-0.1-7.3h12.4c0.6,0,0.9,0,0.9,0c0.2,0,0.3,0.2,0.3,0.4c0,0.3-0.2,0.4-0.5,0.4h-0.1l-5.9-0.1l0,3.6
			l1.3,0l4.1-0.1l0.9,0c0.3,0,0.5,0,0.7,0.1s0.2,0.2,0.2,0.3c0,0.3-0.3,0.5-0.8,0.5l-0.9,0L300.8,280.3z"/>
		<path d="M319.2,285.2c1.8-3.2,3-5.3,3.3-6.3c0.2-0.5,0.3-0.7,0.4-0.9c0.1-0.1,0.2-0.2,0.4-0.2c0.2,0,0.3,0,0.4,0.1
			c0.1,0.1,0.2,0.2,0.2,0.3c0,0.1-0.1,0.3-0.3,0.6l-6.8,12.3l-0.4,0.7l-3.1-4.9l-1-1.6l-1.1-1.7l-0.9-1.5l-2.6-3.8h7.3l2.8,4.7
			L319.2,285.2z"/>
		<path d="M328.7,285.1v3.6c0,0.7,0,1.1,0.1,1.3c0.2,0.4,0.6,0.5,1.2,0.5c0.9,0,1.8-0.2,2.7-0.7s1.7-1.2,2.3-2.1
			c0.2-0.3,0.4-0.5,0.5-0.6s0.2-0.1,0.3-0.1c0.1,0,0.2,0,0.3,0.1s0.1,0.2,0.1,0.4c0,0.3-0.3,0.8-0.8,1.3c-0.7,0.7-1.5,1.3-2.6,1.7
			s-2,0.7-3,0.7c-1.7,0-3.1-0.6-4.4-1.7c-0.7-0.7-1.3-1.5-1.7-2.4c-0.4-0.8-0.5-1.7-0.5-2.5c0-0.8,0.2-1.6,0.5-2.4s0.7-1.5,1.3-2.1
			c0.6-0.7,1.4-1.2,2.3-1.6c0.9-0.4,1.7-0.6,2.7-0.6c1.4,0,2.8,0.4,3.9,1.3c1.8,1.3,2.7,3.3,2.7,5.8h-2.7l-3.5,0L328.7,285.1z
			 M331.7,284.3v-3.4c0-0.7,0-1.2,0-1.3c0-0.1-0.1-0.3-0.2-0.4c-0.2-0.3-0.7-0.5-1.3-0.5c-0.7,0-1.1,0.2-1.3,0.5
			c-0.1,0.2-0.2,0.8-0.2,1.6v3.4l1.4,0L331.7,284.3z"/>
		<path d="M344.4,281.9l0,4.5l0,4.7h-6l0-0.6l0-2.4l0-4.3l-0.1-4.8l0-0.7h6v2.4c0.9-1,1.5-1.6,1.9-1.8c0.8-0.6,1.6-0.9,2.3-0.9
			c0.4,0,0.8,0.1,1.1,0.3s0.4,0.4,0.4,0.7c0,0.2-0.1,0.4-0.3,0.6c-0.2,0.1-0.4,0.2-0.6,0.2c-0.2,0-0.3,0-0.5-0.1
			c-0.3-0.2-0.6-0.2-0.9-0.2c-0.6,0-1.1,0.2-1.6,0.6S345,281.1,344.4,281.9z"/>
		<path d="M360.8,284.2c1.5-2.3,2.6-4.1,3.3-5.3c0.3-0.4,0.4-0.7,0.5-0.7c0.1-0.1,0.2-0.1,0.3-0.1c0.2,0,0.3,0.1,0.4,0.2
			c0.1,0.1,0.2,0.3,0.2,0.4c0,0.1-0.1,0.3-0.2,0.4c-1.1,1.5-2.5,3.6-4.3,6.2l-2.1,3.2c-0.7,1.1-1.3,1.9-1.8,2.3
			c-0.3,0.3-0.8,0.6-1.2,0.8c-0.5,0.2-0.9,0.3-1.4,0.3c-0.4,0-0.8-0.1-1.1-0.3c-0.3-0.2-0.4-0.4-0.4-0.6c0-0.2,0.1-0.3,0.2-0.4
			s0.3-0.2,0.5-0.2c0.1,0,0.4,0.1,0.8,0.3c0.3,0.1,0.5,0.2,0.6,0.2c0.4,0,0.7-0.1,1-0.3s0.7-0.6,1-1.1l-1.4-2.2c-3-4.6-5-7.6-6-8.9
			h7.4c0.5,1,1,2,1.6,3.1C359.6,282.4,360.2,283.3,360.8,284.2z"/>
		<path d="M372.4,275.1h6.2c1.6,0,2.8,0.1,3.6,0.2c2,0.4,3.6,1.5,4.9,3.2c1,1.4,1.5,2.9,1.5,4.6c0,1.7-0.5,3.2-1.5,4.6
			c-1.2,1.7-2.8,2.7-4.7,3.1c-0.5,0.1-0.9,0.2-1.3,0.2s-1.3,0-2.6,0h-6l0-7.7L372.4,275.1z M379.6,275.9l-0.1,9.4l0.1,5.1
			c1,0,1.8,0,2.3-0.1s1-0.2,1.6-0.5c1.4-0.6,2.5-1.6,3.3-2.9c0.7-1.1,1-2.4,1-3.7c0-1.5-0.4-2.8-1.2-4c-1.5-2.2-3.6-3.2-6.5-3.2
			L379.6,275.9z"/>
		<path d="M398.7,283.3v-1.4c0-1,0-1.6,0-1.8s-0.1-0.4-0.2-0.6c-0.3-0.4-0.9-0.7-2-0.7c-1.6,0-2.8,0.5-3.7,1.5
			c-0.4,0.4-0.6,0.6-0.9,0.6c-0.2,0-0.3-0.1-0.5-0.2s-0.2-0.3-0.2-0.4c0-0.5,0.6-1,1.7-1.5c1.1-0.5,2.5-0.8,4.3-0.8
			c2.9,0,4.9,0.4,6.1,1.3c0.5,0.4,0.9,0.8,1,1.3s0.2,1.3,0.2,2.5v4.7c0,0.9,0,1.5,0.1,1.9s0.3,0.9,0.6,1.4h-6.6v-1.2
			c-0.7,0.5-1.4,0.9-2.1,1.1s-1.4,0.4-2.1,0.4c-1.2,0-2.2-0.3-3.1-1c-1.2-0.9-1.8-2-1.8-3.5c0-1.3,0.5-2.3,1.4-3
			c1.1-0.9,2.5-1.4,4.1-1.4c0.7,0,1.3,0.1,1.8,0.2C397.5,282.8,398.1,283,398.7,283.3z M398.7,284.2c-1-0.5-1.7-0.7-2.3-0.7
			c-0.5,0-0.8,0.2-0.9,0.5c-0.1,0.2-0.1,0.8-0.1,1.7v2.8c0,0.6,0,1,0.1,1.1c0.1,0.4,0.3,0.5,0.8,0.5c0.4,0,0.8-0.1,1.2-0.3
			s0.8-0.5,1.2-0.8L398.7,284.2z"/>
		<path d="M415.5,284.2c1.5-2.3,2.6-4.1,3.3-5.3c0.3-0.4,0.4-0.7,0.5-0.7c0.1-0.1,0.2-0.1,0.3-0.1c0.2,0,0.3,0.1,0.4,0.2
			c0.1,0.1,0.2,0.3,0.2,0.4c0,0.1-0.1,0.3-0.2,0.4c-1.1,1.5-2.5,3.6-4.3,6.2l-2.1,3.2c-0.7,1.1-1.3,1.9-1.8,2.3
			c-0.3,0.3-0.8,0.6-1.2,0.8c-0.5,0.2-0.9,0.3-1.4,0.3c-0.4,0-0.8-0.1-1.1-0.3c-0.3-0.2-0.4-0.4-0.4-0.6c0-0.2,0.1-0.3,0.2-0.4
			s0.3-0.2,0.5-0.2c0.1,0,0.4,0.1,0.8,0.3c0.3,0.1,0.5,0.2,0.6,0.2c0.4,0,0.7-0.1,1-0.3s0.7-0.6,1-1.1l-1.4-2.2c-3-4.6-5-7.6-6-8.9
			h7.4c0.5,1,1,2,1.6,3.1C414.3,282.4,414.9,283.3,415.5,284.2z"/>
	</g>
</g>
</svg>
