<?xml version="1.0" encoding="utf-8"?>
<!-- Generator: Adobe Illustrator 21.0.0, SVG Export Plug-In . SVG Version: 6.00 Build 0)  -->
<svg version="1.1" xmlns="http://www.w3.org/2000/svg" xmlns:xlink="http://www.w3.org/1999/xlink" x="0px" y="0px"
	 viewBox="0 0 500 500" style="enable-background:new 0 0 500 500;" xml:space="preserve">
<style type="text/css">
	.st0{fill:none;stroke:#000000;stroke-width:5;stroke-miterlimit:10;}
	.st1{fill:none;stroke:#A7A9AC;stroke-width:5;stroke-miterlimit:10;}
</style>
<g id="Layer_1">
	<polyline class="st0" points="78.7,103.6 291.1,28.5 460.3,173.1 421.3,396.4 210.9,470.8 37.6,325.1 74.8,124.7 287.2,49.9 
		440.1,180.5 404.7,382.3 212.8,450.1 58.1,317.9 90.2,145 282.4,75.4 415.1,188.8 385,365.4 217.6,424.6 82.6,309.2 110.5,158.8 
		277.8,100 393.8,199.1 366,349.1 222.2,400 106.2,300.9 127.9,184.1 271.6,133.6 361.6,210.5 340,326.9 228.4,366.4 138.4,289.5 
		155.6,196.9 267.1,157.6 338.6,218.7 321.9,308.2 234.2,341.9 161.4,281.3 174.6,210.2 263,179.8 317.3,226.2 304.7,294.3 
		237,320.2 182.7,273.8 191.5,226.2 258.9,202.3 295.7,233.8 286.9,281.5 241.1,297.7 204.3,266.2 208.9,240.9 254.6,225.2 
		273.4,241.3 269.2,266.4 245.4,274.8 226.2,258.4 249,249.6 	"/>
</g>
<g id="Layer_2">
	<polyline class="st1" points="80.7,103.6 293.1,28.5 462.3,173.1 423.3,396.4 212.9,470.8 39.6,325.1 76.8,124.7 289.2,49.9 
		442.1,180.5 406.7,382.3 214.8,450.1 60.1,317.9 92.2,145 284.4,75.4 417.1,188.8 387,365.4 219.6,424.6 84.6,309.2 112.5,158.8 
		279.8,100 395.8,199.1 368,349.1 224.2,400 108.2,300.9 129.9,184.1 273.6,133.6 363.6,210.5 342,326.9 230.4,366.4 140.4,289.5 
		157.6,196.9 269.1,157.6 340.6,218.7 323.9,308.2 236.2,341.9 163.4,281.3 176.6,210.2 265,179.8 319.3,226.2 306.7,294.3 
		239,320.2 184.7,273.8 193.5,226.2 260.9,202.3 297.7,233.8 288.9,281.5 243.1,297.7 206.3,266.2 210.9,240.9 256.6,225.2 
		275.4,241.3 271.2,266.4 247.4,274.8 228.2,258.4 251,249.6 	"/>
</g>
</svg>
