<?xml version="1.0" encoding="utf-8"?>
<!-- Generator: Adobe Illustrator 21.0.0, SVG Export Plug-In . SVG Version: 6.00 Build 0)  -->
<svg version="1.1" xmlns="http://www.w3.org/2000/svg" xmlns:xlink="http://www.w3.org/1999/xlink" x="0px" y="0px"
	 viewBox="0 0 500 500" style="enable-background:new 0 0 500 500;" xml:space="preserve">
<style type="text/css">
	.st0{fill:#FFFFFF;stroke:#000000;stroke-width:3;stroke-miterlimit:10;}
</style>
<g id="Background">
	<circle class="st0" cx="250" cy="250" r="242.4"/>
</g>
<g id="Title">
	<g>
		<path d="M116.9,291.6H97.6L90,263.5h-35l-7.2,28.1H28.9l34.1-123.7h18.7L116.9,291.6z M84.3,242.7l-12.1-45.9l-11.8,45.9H84.3z"/>
		<path d="M121.8,251.3L139,249c1,8.2,3.1,14.1,6.3,18c3.2,3.8,7.4,5.7,12.8,5.7c5.7,0,10-1.7,12.9-5.1c2.9-3.4,4.3-7.4,4.3-11.9
			c0-2.9-0.6-5.4-1.8-7.5c-1.2-2.1-3.3-3.8-6.4-5.4c-2.1-1-6.8-2.8-14.2-5.4c-9.5-3.3-16.1-7.4-20-12.2c-5.4-6.8-8.1-15.1-8.1-24.9
			c0-6.3,1.3-12.2,3.8-17.7c2.5-5.5,6.2-9.7,10.9-12.5c4.8-2.9,10.5-4.3,17.2-4.3c11,0,19.3,3.4,24.8,10.2
			c5.6,6.8,8.5,15.9,8.8,27.2l-17.7,1.1c-0.8-6.4-2.4-10.9-4.9-13.7c-2.5-2.8-6.2-4.2-11.2-4.2c-5.1,0-9.2,1.5-12.1,4.5
			c-1.9,1.9-2.8,4.5-2.8,7.7c0,2.9,0.9,5.4,2.6,7.5c2.2,2.6,7.7,5.4,16.3,8.3c8.6,2.9,15,5.8,19.1,8.9c4.1,3.1,7.4,7.3,9.7,12.6
			c2.3,5.3,3.5,11.9,3.5,19.7c0,7.1-1.4,13.7-4.2,19.9c-2.8,6.2-6.7,10.8-11.8,13.8c-5.1,3-11.5,4.5-19.1,4.5
			c-11.1,0-19.6-3.6-25.5-10.8C126.5,275.7,122.9,265.2,121.8,251.3z"/>
		<path d="M208,291.6V167.9h17.7v48.7h34.7v-48.7H278v123.7h-17.7v-54.1h-34.7v54.1H208z"/>
		<path d="M292.7,230.5c0-12.6,1.3-23.2,4-31.7c2-6.3,4.7-12,8.2-17c3.4-5,7.2-8.7,11.3-11.1c5.5-3.3,11.8-4.9,18.9-4.9
			c12.9,0,23.2,5.7,31,17c7.8,11.3,11.6,27,11.6,47.2c0,20-3.8,35.6-11.5,46.9c-7.7,11.3-18,16.9-30.8,16.9
			c-13,0-23.4-5.6-31.1-16.8C296.6,265.6,292.7,250.2,292.7,230.5z M311,229.7c0,14,2.3,24.6,6.9,31.8c4.6,7.2,10.4,10.8,17.5,10.8
			s12.8-3.6,17.4-10.8c4.5-7.2,6.8-17.9,6.8-32.3c0-14.2-2.2-24.7-6.6-31.7c-4.4-7-10.3-10.5-17.5-10.5s-13.2,3.5-17.6,10.6
			C313.2,204.8,311,215.4,311,229.7z"/>
		<path d="M391.8,291.6V167.9h17.7v54.9l35.8-54.9h23.8l-33,48.2l34.8,75.5h-22.9l-24.1-58l-14.3,20.7v37.4H391.8z"/>
	</g>
</g>
</svg>
