<?xml version="1.0" encoding="utf-8"?>
<!-- Generator: Adobe Illustrator 21.0.0, SVG Export Plug-In . SVG Version: 6.00 Build 0)  -->
<svg version="1.1" xmlns="http://www.w3.org/2000/svg" xmlns:xlink="http://www.w3.org/1999/xlink" x="0px" y="0px"
	 viewBox="0 0 500 500" style="enable-background:new 0 0 500 500;" xml:space="preserve">
<style type="text/css">
	.st0{fill:#FFFFFF;stroke:#000000;stroke-width:5;stroke-miterlimit:10;}
	.st1{fill:none;stroke:#000000;stroke-width:5;stroke-miterlimit:10;}
</style>
<g id="Rectangle">
	<rect x="12.5" y="150" class="st0" width="475" height="200"/>
</g>
<g id="Lines">
	<line class="st1" x1="12.5" y1="350" x2="212.5" y2="150"/>
	<line class="st1" x1="150.5" y1="349" x2="348.8" y2="150.7"/>
	<line class="st1" x1="150.5" y1="349" x2="348.8" y2="150.7"/>
	<line class="st1" x1="287.5" y1="350" x2="487.5" y2="150"/>
</g>
<g id="Name">
	<g>
		<path d="M80.1,177.2l28.1,50.9H83.8l-3.4-6.4H68.7l-10.4,0l-1.8,0l-2.3,4.3c-0.7,1.3-1.2,2.1-1.4,2.4c-0.3,0.3-0.6,0.5-1,0.5
			c-0.8,0-1.2-0.4-1.2-1.1c0-0.3,0.2-0.9,0.7-1.7c0.5-0.8,2.1-3.6,4.8-8.2l21.3-35.8L80.1,177.2z M69.2,200.3L63,210.6l-4.9,8.5
			l10.5,0.1l10.5-0.1L69.2,200.3z"/>
		<path d="M110.8,221.5c0.5,0,1.1,0.4,1.8,1.1c1.2,1.1,2.8,2.1,5,2.8c2.2,0.8,4.2,1.2,6,1.2c0.9,0,1.5-0.1,2-0.4
			c0.4-0.3,0.7-0.7,0.7-1.3c0-0.6-0.3-1.2-0.9-2s-1.9-2.3-4-4.5c-5-5.4-8.3-9.2-9.8-11.4c-1.5-2.2-2.2-4.3-2.2-6.3
			c0-1.8,0.5-3.4,1.5-5c1-1.6,2.4-3,4.3-4.1c3-1.9,6.5-2.8,10.4-2.8c2.9,0,5.9,0.6,9.1,1.8c2.5,1,3.8,2,3.8,3.1
			c0,0.4-0.1,0.7-0.4,0.9c-0.3,0.3-0.6,0.4-1,0.4c-0.4,0-1.3-0.4-2.5-1.3c-2.5-1.8-5.2-2.7-8.1-2.7c-1,0-1.8,0.2-2.3,0.5
			c-0.5,0.3-0.8,0.8-0.8,1.5c0,0.8,0.5,1.8,1.5,3c1,1.2,2.9,3.3,5.9,6.2c2.9,2.8,4.8,4.7,5.5,5.6c0.8,0.9,1.5,1.9,2.3,3
			c1.2,2,1.9,4.1,1.9,6.4c0,3.6-1.7,6.5-5.2,8.8c-2.9,1.9-6.4,2.8-10.5,2.8c-4.6,0-8.8-1-12.3-3.1c-1.1-0.6-1.8-1.1-2.2-1.5
			c-0.4-0.4-0.6-0.8-0.6-1.3C109.4,222,109.8,221.6,110.8,221.5z"/>
		<path d="M164,194.6c2.3-1.5,4.1-2.6,5.5-3.3c3.5-1.7,7-2.6,10.4-2.6c2.5,0,4.7,0.4,6.7,1.3c2,0.9,3.5,2.1,4.4,3.7
			c1.1,1.9,1.7,5.3,1.7,10.2l-0.1,5.2l-0.1,6.9l0.3,12h-18.1l0.1-21.7l-0.2-11.1c-0.2-1.2-1.1-1.8-2.6-1.8c-1.1,0-2.3,0.3-3.7,1
			s-2.9,1.7-4.5,3l-0.1,8.8l0.1,15.3l0.1,6.5H146l0.1-14.8v-16.9l-0.1-14.6l0-1.6H164v1l0,6l0,3.7V194.6z"/>
		<path d="M218.2,188.7c3.8,0,7.3,1,10.7,3.1c3.1,1.9,5.5,4.5,7.1,7.9c1.5,2.9,2.2,6,2.2,9.3c0,2.3-0.4,4.5-1.3,6.8
			c-0.9,2.3-2,4.3-3.5,6c-2.1,2.4-4.6,4.2-7.6,5.4c-2.4,1-5,1.5-7.6,1.5c-4.4,0-8.4-1.3-12-3.9c-2.8-2-4.9-4.6-6.3-7.8
			c-1.2-2.7-1.8-5.5-1.8-8.5c0-5.8,2.1-10.6,6.3-14.5C208.5,190.6,213.1,188.8,218.2,188.7z M217.2,191l-0.1,35.5
			c0.7,0,1.2,0.1,1.5,0.1c3.3,0,6.4-0.9,9.4-2.7c2.9-1.8,5-4.2,6.4-7.1c1.1-2.3,1.7-4.9,1.7-7.7c0-5.7-2.1-10.2-6.3-13.8
			c-3.4-2.8-7-4.3-11-4.3C218.5,190.9,217.9,190.9,217.2,191z"/>
		<path d="M274.4,197l4,6.6l3.8,6.5c3.8,6.2,6.3,10.4,7.7,12.4c1.4,2,2.9,3.9,4.6,5.6h-20.9l-6.5-11.4c-2.4-4.2-4.2-7.3-5.5-9.2v1.6
			l0,6.3l0.1,11l0,1.7h-18l0.2-16.9l0-9.8l-0.2-19.6l0-1.7h18l-0.1,23.1v1.9c6.5-5.9,11-9.7,13.5-11.6c3.2-2.4,6-3.7,8.5-3.7
			c1.8,0,2.7,0.7,2.7,2c0,0.5-0.2,0.9-0.5,1.2c-0.3,0.3-0.7,0.5-1.2,0.5c-0.3,0-0.6-0.1-1-0.2c-0.7-0.2-1.2-0.3-1.5-0.3
			c-1,0-2,0.3-3.1,0.9C277.9,194.4,276.4,195.5,274.4,197z"/>
		<path d="M314.1,180.1h18.5c4.8,0,8.5,0.2,10.9,0.7c6,1.1,10.9,4.4,14.6,9.6c2.9,4.1,4.4,8.7,4.4,13.7c0,5.1-1.5,9.7-4.5,13.9
			c-3.6,5-8.3,8.2-14.1,9.4c-1.5,0.3-2.8,0.5-4,0.6S336,228,332,228h-17.9l0.1-23.2L314.1,180.1z M335.6,182.3l-0.2,28.3l0.2,15.2
			c3.1,0,5.4-0.1,6.8-0.4c1.4-0.2,2.9-0.7,4.7-1.5c4.2-1.8,7.5-4.7,9.9-8.7c2.1-3.4,3.1-7.2,3.1-11.2c0-4.4-1.2-8.4-3.7-12
			c-4.4-6.5-10.9-9.7-19.4-9.7L335.6,182.3z"/>
		<path d="M382.2,210v10.9c0,2.1,0.1,3.4,0.4,4c0.5,1.1,1.7,1.6,3.5,1.6c2.7,0,5.4-0.7,8.1-2.2c2.7-1.5,5-3.5,6.9-6.2
			c0.6-0.9,1.1-1.4,1.4-1.7c0.3-0.2,0.6-0.4,0.9-0.4c0.4,0,0.7,0.1,1,0.4c0.3,0.3,0.4,0.7,0.4,1.1c0,1-0.8,2.3-2.4,4
			c-2.1,2.1-4.6,3.9-7.7,5.2s-6,2-8.9,2c-5,0-9.4-1.7-13.2-5c-2.2-2-3.9-4.4-5.1-7.3c-1.1-2.5-1.6-5.1-1.6-7.6
			c0-2.4,0.5-4.9,1.4-7.3c0.9-2.4,2.2-4.6,3.9-6.3c1.9-2.1,4.1-3.7,6.8-4.9c2.6-1.1,5.2-1.7,8-1.7c4.3,0,8.3,1.3,11.8,3.8
			c5.5,4,8.2,9.8,8.2,17.3h-8.2l-10.5,0L382.2,210z M391.2,207.7v-10.2c0-2.2-0.1-3.5-0.1-3.9c0-0.4-0.2-0.8-0.5-1.2
			c-0.7-0.9-2-1.4-4-1.4c-2.1,0-3.4,0.5-3.9,1.6c-0.3,0.6-0.5,2.3-0.5,4.9v10.2l4.3,0.1L391.2,207.7z"/>
		<path d="M435.3,207.2c4.6-7,8-12.3,10-16c0.7-1.2,1.2-2,1.4-2.2s0.5-0.3,0.8-0.3c0.5,0,0.9,0.2,1.3,0.5s0.6,0.8,0.6,1.2
			c0,0.4-0.2,0.8-0.6,1.3c-3.4,4.6-7.6,10.8-12.8,18.7l-6.2,9.5c-2.1,3.2-3.9,5.6-5.3,7c-1,1-2.3,1.8-3.7,2.5
			c-1.4,0.6-2.8,0.9-4.1,0.9c-1.3,0-2.4-0.3-3.2-0.8c-0.8-0.5-1.2-1.1-1.2-1.9c0-0.5,0.2-0.9,0.6-1.3s0.8-0.5,1.4-0.5
			c0.4,0,1.2,0.3,2.3,0.8c0.8,0.4,1.4,0.5,1.9,0.5c1.1,0,2.1-0.3,3-1c0.9-0.6,2-1.7,3.1-3.2l-4.1-6.5c-8.9-13.9-14.9-22.8-17.9-26.8
			h22.3c1.4,3.1,3,6.1,4.9,9.2S433.4,204.7,435.3,207.2z"/>
	</g>
</g>
<g id="Underline">
	<line class="st1" x1="28.6" y1="250" x2="468.9" y2="250"/>
</g>
<g id="Tagline">
	<g>
		<path d="M133.9,280.4c0.1,0,0.3,0.1,0.5,0.3c0.6,0.6,1.3,1.2,2.2,1.5s1.7,0.6,2.5,0.6c0.9,0,1.4-0.3,1.4-0.8
			c0-0.4-0.2-0.7-0.5-1.2c-0.3-0.4-1.1-1.3-2.3-2.6c-1.5-1.6-2.5-2.9-3-3.7c-0.7-1.1-1-2.1-1-3c0-1.4,0.6-2.6,1.9-3.5
			c1.3-0.9,2.8-1.3,4.7-1.3c1.3,0,2.5,0.3,3.6,0.8c0.4,0.2,0.8,0.4,1,0.7s0.4,0.5,0.4,0.7c0,0.1,0,0.2-0.1,0.2s-0.2,0.1-0.3,0.1
			c-0.1,0-0.3-0.1-0.6-0.4c-0.4-0.4-1-0.7-1.7-1s-1.3-0.4-2-0.4c-0.4,0-0.7,0.1-1,0.3s-0.4,0.4-0.4,0.7c0,0.3,0.2,0.7,0.5,1.2
			c0.3,0.5,0.8,1.1,1.5,1.8c2.3,2.4,3.7,4.1,4.2,4.9c0.5,0.9,0.8,1.8,0.8,2.6c0,0.7-0.2,1.4-0.6,2s-0.9,1.2-1.6,1.6
			c-1.3,0.8-2.9,1.2-4.7,1.2c-1.7,0-3.2-0.4-4.5-1.3c-0.9-0.6-1.4-1.1-1.4-1.5c0-0.1,0-0.2,0.1-0.3S133.8,280.4,133.9,280.4z"/>
		<path d="M163.6,272.3c1-0.8,2-1.3,2.8-1.7s1.8-0.5,2.8-0.5c1.8,0,3,0.6,3.7,1.7c0.2,0.3,0.3,0.7,0.4,1.2s0.1,1.1,0.1,2l0,3.1v0.7
			l0.1,3.9l0,0.5h-6l0-3.7l0.1-3.7l0-1.5c0-0.6,0-0.9,0-1c0-0.6-0.1-1-0.2-1.3s-0.4-0.4-0.8-0.4c-0.4,0-0.8,0.1-1.3,0.3
			s-1,0.6-1.5,1c0,0.3,0.1,0.7,0.1,1.3l0,2.9l0,3.3c0,1,0,1.8,0.1,2.6h-6l0-2.6l0-5.5c0-1.8,0-2.8-0.1-3c-0.1-0.3-0.4-0.5-0.8-0.5
			c-0.4,0-0.8,0.1-1.2,0.3s-0.9,0.6-1.5,1l0,5l0.1,5.3h-6v-0.5l0-2.1l0-2.9l0-2.8l0-4.5h6v1.6c0.9-0.7,1.7-1.1,2.6-1.5
			s1.7-0.5,2.6-0.5c1.3,0,2.4,0.3,3.2,1C163.1,271.3,163.4,271.7,163.6,272.3z"/>
		<path d="M184.4,275.4v-1.4c0-1,0-1.6,0-1.8s-0.1-0.4-0.2-0.6c-0.3-0.4-0.9-0.7-2-0.7c-1.6,0-2.8,0.5-3.7,1.5
			c-0.4,0.4-0.6,0.6-0.9,0.6c-0.2,0-0.3-0.1-0.5-0.2s-0.2-0.3-0.2-0.4c0-0.5,0.6-1,1.7-1.5c1.1-0.5,2.5-0.8,4.3-0.8
			c2.9,0,4.9,0.4,6.1,1.3c0.5,0.4,0.9,0.8,1,1.3s0.2,1.3,0.2,2.5v4.7c0,0.9,0,1.5,0.1,1.9s0.3,0.9,0.6,1.4h-6.6v-1.2
			c-0.7,0.5-1.4,0.9-2.1,1.1s-1.4,0.4-2.1,0.4c-1.2,0-2.2-0.3-3.1-1c-1.2-0.9-1.8-2-1.8-3.5c0-1.3,0.5-2.3,1.4-3
			c1.1-0.9,2.5-1.4,4.1-1.4c0.7,0,1.3,0.1,1.8,0.2C183.2,274.8,183.8,275,184.4,275.4z M184.4,276.2c-1-0.5-1.7-0.7-2.3-0.7
			c-0.5,0-0.8,0.2-0.9,0.5c-0.1,0.2-0.1,0.8-0.1,1.7v2.8c0,0.6,0,1,0.1,1.1c0.1,0.4,0.3,0.5,0.8,0.5c0.4,0,0.8-0.1,1.2-0.3
			s0.8-0.5,1.2-0.8L184.4,276.2z"/>
		<path d="M199.5,266.2l-0.1,3.8l0,0.4c0.7,0,1.3,0,1.9-0.1c0.1,0,0.2,0,0.2,0c0.3,0,0.5,0.2,0.5,0.5c0,0.3-0.2,0.4-0.5,0.4
			c-0.1,0-0.2,0-0.4,0c-0.6,0-1.1-0.1-1.3-0.1h-0.3l0,2.3l0,4.6l0,2.4c0,0.6,0,1,0.1,1.2c0.1,0.2,0.2,0.3,0.4,0.3
			c0.3,0,0.6-0.2,0.9-0.5c0.3-0.3,0.6-0.7,0.7-1.2c0.2-0.5,0.4-0.7,0.6-0.7c0.3,0,0.4,0.1,0.4,0.4s-0.1,0.7-0.4,1.1s-0.6,0.8-1,1.2
			c-0.9,0.8-2.1,1.2-3.6,1.2c-1.4,0-2.5-0.4-3.2-1.3c-0.4-0.4-0.7-0.9-0.8-1.4c-0.1-0.5-0.2-1.2-0.2-2.2v-0.9l0-2.5v-4.2
			c-0.1,0-0.2,0-0.2,0c-0.1,0-0.2,0-0.5,0c-0.2,0-0.4,0-0.5,0c-0.4,0-0.6-0.1-0.6-0.4c0-0.3,0.2-0.4,0.6-0.4c0.2,0,0.3,0,0.4,0
			l0.9,0.1V269C195.7,268.2,197.8,267.2,199.5,266.2z"/>
		<path d="M209.9,266.2l-0.1,3.8l0,0.4c0.7,0,1.3,0,1.9-0.1c0.1,0,0.2,0,0.2,0c0.3,0,0.5,0.2,0.5,0.5c0,0.3-0.2,0.4-0.5,0.4
			c-0.1,0-0.2,0-0.4,0c-0.6,0-1.1-0.1-1.3-0.1h-0.3l0,2.3l0,4.6l0,2.4c0,0.6,0,1,0.1,1.2c0.1,0.2,0.2,0.3,0.4,0.3
			c0.3,0,0.6-0.2,0.9-0.5c0.3-0.3,0.6-0.7,0.7-1.2c0.2-0.5,0.4-0.7,0.6-0.7c0.3,0,0.4,0.1,0.4,0.4s-0.1,0.7-0.4,1.1s-0.6,0.8-1,1.2
			c-0.9,0.8-2.1,1.2-3.6,1.2c-1.4,0-2.5-0.4-3.2-1.3c-0.4-0.4-0.7-0.9-0.8-1.4c-0.1-0.5-0.2-1.2-0.2-2.2v-0.9l0-2.5v-4.2
			c-0.1,0-0.2,0-0.2,0c-0.1,0-0.2,0-0.5,0c-0.2,0-0.4,0-0.5,0c-0.4,0-0.6-0.1-0.6-0.4c0-0.3,0.2-0.4,0.6-0.4c0.2,0,0.3,0,0.4,0
			l0.9,0.1V269C206.1,268.2,208.1,267.2,209.9,266.2z"/>
		<path d="M218.6,277.1v3.6c0,0.7,0,1.1,0.1,1.3c0.2,0.4,0.6,0.5,1.2,0.5c0.9,0,1.8-0.2,2.7-0.7s1.7-1.2,2.3-2.1
			c0.2-0.3,0.4-0.5,0.5-0.6s0.2-0.1,0.3-0.1c0.1,0,0.2,0,0.3,0.1s0.1,0.2,0.1,0.4c0,0.3-0.3,0.8-0.8,1.3c-0.7,0.7-1.5,1.3-2.6,1.7
			s-2,0.7-3,0.7c-1.7,0-3.1-0.6-4.4-1.7c-0.7-0.7-1.3-1.5-1.7-2.4c-0.4-0.8-0.5-1.7-0.5-2.5c0-0.8,0.2-1.6,0.5-2.4s0.7-1.5,1.3-2.1
			c0.6-0.7,1.4-1.2,2.3-1.6c0.9-0.4,1.7-0.6,2.7-0.6c1.4,0,2.8,0.4,3.9,1.3c1.8,1.3,2.7,3.3,2.7,5.8h-2.7l-3.5,0L218.6,277.1z
			 M221.6,276.4v-3.4c0-0.7,0-1.2,0-1.3c0-0.1-0.1-0.3-0.2-0.4c-0.2-0.3-0.7-0.5-1.3-0.5c-0.7,0-1.1,0.2-1.3,0.5
			c-0.1,0.2-0.2,0.8-0.2,1.6v3.4l1.4,0L221.6,276.4z"/>
		<path d="M234.3,274l0,4.5l0,4.7h-6l0-0.6l0-2.4l0-4.3l-0.1-4.8l0-0.7h6v2.4c0.9-1,1.5-1.6,1.9-1.8c0.8-0.6,1.6-0.9,2.3-0.9
			c0.4,0,0.8,0.1,1.1,0.3c0.3,0.2,0.4,0.4,0.4,0.7c0,0.2-0.1,0.4-0.3,0.6c-0.2,0.1-0.4,0.2-0.6,0.2c-0.2,0-0.3,0-0.5-0.1
			c-0.3-0.2-0.6-0.2-0.9-0.2c-0.6,0-1.1,0.2-1.6,0.6S235,273.1,234.3,274z"/>
		<path d="M251.7,277.1v3.6c0,0.7,0,1.1,0.1,1.3c0.2,0.4,0.6,0.5,1.2,0.5c0.9,0,1.8-0.2,2.7-0.7s1.7-1.2,2.3-2.1
			c0.2-0.3,0.4-0.5,0.5-0.6s0.2-0.1,0.3-0.1c0.1,0,0.2,0,0.3,0.1s0.1,0.2,0.1,0.4c0,0.3-0.3,0.8-0.8,1.3c-0.7,0.7-1.5,1.3-2.6,1.7
			s-2,0.7-3,0.7c-1.7,0-3.1-0.6-4.4-1.7c-0.7-0.7-1.3-1.5-1.7-2.4c-0.4-0.8-0.5-1.7-0.5-2.5c0-0.8,0.2-1.6,0.5-2.4s0.7-1.5,1.3-2.1
			c0.6-0.7,1.4-1.2,2.3-1.6c0.9-0.4,1.7-0.6,2.7-0.6c1.4,0,2.8,0.4,3.9,1.3c1.8,1.3,2.7,3.3,2.7,5.8h-2.7l-3.5,0L251.7,277.1z
			 M254.7,276.4v-3.4c0-0.7,0-1.2,0-1.3c0-0.1-0.1-0.3-0.2-0.4c-0.2-0.3-0.7-0.5-1.3-0.5c-0.7,0-1.1,0.2-1.3,0.5
			c-0.1,0.2-0.2,0.8-0.2,1.6v3.4l1.4,0L254.7,276.4z"/>
		<path d="M269.7,275.4v-1.4c0-1,0-1.6,0-1.8s-0.1-0.4-0.2-0.6c-0.3-0.4-0.9-0.7-2-0.7c-1.6,0-2.8,0.5-3.7,1.5
			c-0.4,0.4-0.6,0.6-0.9,0.6c-0.2,0-0.3-0.1-0.5-0.2s-0.2-0.3-0.2-0.4c0-0.5,0.6-1,1.7-1.5c1.1-0.5,2.5-0.8,4.3-0.8
			c2.9,0,4.9,0.4,6.1,1.3c0.5,0.4,0.9,0.8,1,1.3s0.2,1.3,0.2,2.5v4.7c0,0.9,0,1.5,0.1,1.9s0.3,0.9,0.6,1.4h-6.6v-1.2
			c-0.7,0.5-1.4,0.9-2.1,1.1s-1.4,0.4-2.1,0.4c-1.2,0-2.2-0.3-3.1-1c-1.2-0.9-1.8-2-1.8-3.5c0-1.3,0.5-2.3,1.4-3
			c1.1-0.9,2.5-1.4,4.1-1.4c0.7,0,1.3,0.1,1.8,0.2C268.5,274.8,269.1,275,269.7,275.4z M269.7,276.2c-1-0.5-1.7-0.7-2.3-0.7
			c-0.5,0-0.8,0.2-0.9,0.5c-0.1,0.2-0.1,0.8-0.1,1.7v2.8c0,0.6,0,1,0.1,1.1c0.1,0.4,0.3,0.5,0.8,0.5c0.4,0,0.8-0.1,1.2-0.3
			s0.8-0.5,1.2-0.8L269.7,276.2z"/>
		<path d="M283.8,272.9v7.8l0,0.8c0,0.5,0.1,0.8,0.2,1s0.4,0.2,0.7,0.2c0.9,0,1.8-0.3,2.7-0.8s1.6-1.3,2.2-2.3
			c0.2-0.3,0.3-0.4,0.5-0.4c0.1,0,0.2,0.1,0.3,0.2s0.1,0.2,0.1,0.3c0,0.3-0.2,0.7-0.7,1.2s-1,1-1.6,1.4c-1.2,0.8-2.5,1.2-3.9,1.2
			c-1.9,0-3.5-0.6-4.7-1.8c-1.4-1.3-2.1-3-2.1-4.9c0-2,0.8-3.7,2.3-5c1.3-1.1,2.8-1.7,4.7-1.7c1.5,0,2.8,0.3,3.9,1
			c0.5,0.3,0.9,0.6,1.1,1s0.4,0.6,0.4,0.9c0,0.1,0,0.2-0.1,0.3s-0.2,0.1-0.3,0.1c-0.2,0-0.4-0.2-0.6-0.6c-0.4-0.5-0.9-1-1.7-1.4
			s-1.5-0.6-2.2-0.6c-0.5,0-0.8,0.1-0.9,0.4S283.8,272,283.8,272.9z"/>
		<path d="M297.8,272c0.8-0.5,1.4-0.9,1.8-1.1c1.2-0.6,2.3-0.9,3.5-0.9c0.8,0,1.6,0.1,2.2,0.4s1.2,0.7,1.5,1.2
			c0.4,0.6,0.6,1.8,0.6,3.4l0,1.7l0,2.3l0.1,4h-6l0-7.2l-0.1-3.7c-0.1-0.4-0.4-0.6-0.9-0.6c-0.4,0-0.8,0.1-1.2,0.3
			c-0.5,0.2-1,0.6-1.5,1l0,2.9l0,5.1l0,2.2h-6l0-4.9v-5.6l0-4.9l0-0.5h6v0.3l0,2l0,1.2V272z"/>
		<path d="M331.2,267.2l0,5.7l0,4.1l0,5.7v0.5h-6v-1.5c-0.6,0.6-1.3,1.1-1.9,1.4s-1.3,0.4-2,0.4c-1.5,0-2.8-0.5-4-1.6
			c-1.4-1.4-2.1-3.1-2.1-5.1c0-2,0.7-3.7,2.1-4.9c1.2-1.1,2.6-1.7,4.1-1.7c0.7,0,1.3,0.1,2,0.4s1.3,0.6,1.8,1.2l0-4.4H331.2z
			 M325.2,272.6c-0.6-0.6-1.2-1-1.6-1.2s-0.9-0.4-1.3-0.4c-0.3,0-0.5,0.1-0.6,0.3s-0.2,0.6-0.2,1.2l0,0.5v7.9c0,0.6,0,1,0.1,1.2
			c0.1,0.3,0.3,0.5,0.7,0.5c0.4,0,0.8-0.1,1.2-0.4s1-0.8,1.7-1.5V272.6z"/>
		<path d="M342.2,275.4v-1.4c0-1,0-1.6,0-1.8s-0.1-0.4-0.2-0.6c-0.3-0.4-0.9-0.7-2-0.7c-1.6,0-2.8,0.5-3.7,1.5
			c-0.4,0.4-0.6,0.6-0.9,0.6c-0.2,0-0.3-0.1-0.5-0.2s-0.2-0.3-0.2-0.4c0-0.5,0.6-1,1.7-1.5c1.1-0.5,2.5-0.8,4.3-0.8
			c2.9,0,4.9,0.4,6.1,1.3c0.5,0.4,0.9,0.8,1,1.3s0.2,1.3,0.2,2.5v4.7c0,0.9,0,1.5,0.1,1.9s0.3,0.9,0.6,1.4h-6.6v-1.2
			c-0.7,0.5-1.4,0.9-2.1,1.1s-1.4,0.4-2.1,0.4c-1.2,0-2.2-0.3-3.1-1c-1.2-0.9-1.8-2-1.8-3.5c0-1.3,0.5-2.3,1.4-3
			c1.1-0.9,2.5-1.4,4.1-1.4c0.7,0,1.3,0.1,1.8,0.2C341,274.8,341.5,275,342.2,275.4z M342.2,276.2c-1-0.5-1.7-0.7-2.3-0.7
			c-0.5,0-0.8,0.2-0.9,0.5c-0.1,0.2-0.1,0.8-0.1,1.7v2.8c0,0.6,0,1,0.1,1.1c0.1,0.4,0.3,0.5,0.8,0.5c0.4,0,0.8-0.1,1.2-0.3
			s0.8-0.5,1.2-0.8L342.2,276.2z"/>
		<path d="M359,276.2c1.5-2.3,2.6-4.1,3.3-5.3c0.3-0.4,0.4-0.7,0.5-0.7c0.1-0.1,0.2-0.1,0.3-0.1c0.2,0,0.3,0.1,0.4,0.2
			c0.1,0.1,0.2,0.3,0.2,0.4c0,0.1-0.1,0.3-0.2,0.4c-1.1,1.5-2.5,3.6-4.3,6.2l-2.1,3.2c-0.7,1.1-1.3,1.9-1.8,2.3
			c-0.3,0.3-0.8,0.6-1.2,0.8c-0.5,0.2-0.9,0.3-1.4,0.3c-0.4,0-0.8-0.1-1.1-0.3c-0.3-0.2-0.4-0.4-0.4-0.6c0-0.2,0.1-0.3,0.2-0.4
			s0.3-0.2,0.5-0.2c0.1,0,0.4,0.1,0.8,0.3c0.3,0.1,0.5,0.2,0.6,0.2c0.4,0,0.7-0.1,1-0.3s0.7-0.6,1-1.1l-1.4-2.2c-3-4.6-5-7.6-6-8.9
			h7.4c0.5,1,1,2,1.6,3.1C357.8,274.5,358.4,275.4,359,276.2z"/>
	</g>
</g>
</svg>
